<svg width="258.1399963378906px" height="120.8px" xmlns="http://www.w3.org/2000/svg" viewBox="120.93000183105471 14.600000000000001 258.1399963378906 120.8" style="background: rgba(0, 0, 0, 0);" preserveAspectRatio="xMidYMid"><defs><linearGradient id="editing-gradow-gradient" x1="0" x2="1" y1="0.5" y2="0.5" gradientUnits="objectBoundingBox"><stop offset="0" stop-color="#f0f"></stop><stop offset="1" stop-color="#0ff"></stop></linearGradient><filter id="editing-gradow-filter" x="-100%" y="-100%" width="300%" height="300%"><feFlood flood-color="#fffcd9" result="flood"></feFlood><feComposite operator="in" in2="SourceAlpha" in="flood" result="shadow"></feComposite><feOffset dx="-4" dy="-4" in="SourceGraphic" result="offset-1"></feOffset><feOffset dx="4" dy="4" in="shadow" result="offset-2"></feOffset><feMerge><feMergeNode in="offset-2"></feMergeNode><feMergeNode in="offset-1"></feMergeNode></feMerge></filter></defs><g filter="url(#editing-gradow-filter)"><g transform="translate(163.46913731098175, 104.47000122070312)"><path d="M6.53 0L-0.83 0L10.75-42.24L24.13-42.24L27.07-18.11L38.98-42.24L50.18-42.24L51.33-10.62L51.33-10.62Q51.58-4.35 54.66-2.43L54.66-2.43L54.66-2.43Q53.95-1.15 51.90 0.06L51.90 0.06L51.90 0.06Q49.86 1.28 47.14 1.28L47.14 1.28L47.14 1.28Q44.42 1.28 42.82 0.51L42.82 0.51L42.82 0.51Q41.22-0.26 40.32-1.54L40.32-1.54L40.32-1.54Q38.72-3.84 38.72-8.26L38.72-8.26L38.72-28.03L26.11 0L18.18 0L13.70-28.74L6.53 0ZM71.36 1.28L71.36 1.28L71.36 1.28Q57.28 1.28 57.28-11.97L57.28-11.97L57.28-11.97Q57.28-21.38 62.46-27.46L62.46-27.46L62.46-27.46Q67.97-33.92 77.50-33.92L77.50-33.92L77.50-33.92Q84.42-33.92 87.94-30.72L87.94-30.72L87.94-30.72Q91.46-27.52 91.46-20.80L91.46-20.80L91.46-20.80Q91.46-10.56 85.95-4.61L85.95-4.61L85.95-4.61Q80.58 1.28 71.36 1.28ZM73.02-26.56L73.02-26.56L73.02-26.56Q72.26-24.83 71.65-22.24L71.65-22.24L71.65-22.24Q71.04-19.65 70.27-15.55L70.27-15.55L70.27-15.55Q69.50-11.46 69.50-6.40L69.50-6.40L69.50-6.40Q69.50-4.74 70.05-3.65L70.05-3.65L70.05-3.65Q70.59-2.56 72.06-2.56L72.06-2.56L72.06-2.56Q73.54-2.56 74.46-3.26L74.46-3.26L74.46-3.26Q75.39-3.97 76.10-5.63L76.10-5.63L76.10-5.63Q77.38-8.58 78.40-14.05L78.40-14.05L78.40-14.05Q79.42-19.52 79.52-21.89L79.52-21.89L79.52-21.89Q79.62-24.26 79.62-26.02L79.62-26.02L79.62-26.02Q79.62-27.78 79.10-28.93L79.10-28.93L79.10-28.93Q78.59-30.08 77.15-30.08L77.15-30.08L77.15-30.08Q75.71-30.08 74.75-29.18L74.75-29.18L74.75-29.18Q73.79-28.29 73.02-26.56ZM115.39-33.92L115.39-33.92L115.39-33.92Q117.70-33.92 119.49-33.41L119.49-33.41L119.49-33.41Q119.55-33.66 119.68-34.37L119.68-34.37L120-36.35L120-36.35Q120.26-37.63 120.64-39.74L120.64-39.74L121.66-44.80L134.40-46.08L127.30-8.96L127.30-8.96Q127.23-8.58 127.23-7.94L127.23-7.94L127.23-6.91L127.23-6.91Q127.23-5.50 127.94-4.45L127.94-4.45L127.94-4.45Q128.64-3.39 129.79-3.39L129.79-3.39L129.79-3.39Q128.51-0.38 124.61 0.90L124.61 0.90L124.61 0.90Q123.26 1.28 121.38 1.28L121.38 1.28L121.38 1.28Q119.49 1.28 117.76 0.29L117.76 0.29L117.76 0.29Q116.03-0.70 115.52-2.37L115.52-2.37L115.52-2.37Q114.50-0.70 112.45 0.29L112.45 0.29L112.45 0.29Q110.40 1.28 107.42 1.28L107.42 1.28L107.42 1.28Q104.45 1.28 101.98 0.51L101.98 0.51L101.98 0.51Q99.52-0.26 97.98-1.92L97.98-1.92L97.98-1.92Q95.17-5.18 95.17-12.61L95.17-12.61L95.17-12.61Q95.17-22.21 100.80-28.03L100.80-28.03L100.80-28.03Q106.43-33.92 115.39-33.92ZM114.94-30.08L114.94-30.08L114.94-30.08Q112.58-30.08 111.30-27.52L111.30-27.52L111.30-27.52Q110.02-24.96 108.70-18.62L108.70-18.62L108.70-18.62Q107.39-12.29 107.39-6.59L107.39-6.59L107.39-6.59Q107.39-2.69 109.70-2.69L109.70-2.69L109.70-2.69Q111.74-2.69 113.18-4.74L113.18-4.74L113.18-4.74Q114.62-6.78 115.20-10.18L115.20-10.18L118.66-28.93L118.66-28.93Q117.31-30.08 114.94-30.08ZM155.58-7.23L155.58-7.23L155.58-7.23Q152.26-3.78 146.18-3.78L146.18-3.78L146.18-3.78Q138.56-3.78 136.96-9.34L136.96-9.34L136.96-9.34Q136.45-11.01 136.45-12.86L136.45-12.86L136.45-12.86Q136.45-14.72 136.83-16.64L136.83-16.64L139.84-32.64L152.83-33.92L149.31-15.30L149.31-15.30Q149.18-14.46 148.99-13.57L148.99-13.57L148.99-13.57Q148.80-12.67 148.80-11.74L148.80-11.74L148.80-11.74Q148.80-10.82 149.12-10.21L149.12-10.21L149.12-10.21Q149.44-9.60 149.89-9.22L149.89-9.22L149.89-9.22Q150.66-8.70 152.03-8.70L152.03-8.70L152.03-8.70Q153.41-8.70 154.59-10.37L154.59-10.37L154.59-10.37Q155.78-12.03 156.35-14.91L156.35-14.91L159.87-32.64L172.48-33.92L167.68-8.77L167.68-8.77Q165.31 3.52 160.45 8.38L160.45 8.38L160.45 8.38Q157.95 10.88 154.72 11.87L154.72 11.87L154.72 11.87Q151.49 12.86 147.33 12.86L147.33 12.86L147.33 12.86Q140.61 12.86 136.77 10.75L136.77 10.75L136.77 10.75Q132.93 8.64 132.93 5.12L132.93 5.12L132.93 5.12Q132.93 2.50 134.91 0.99L134.91 0.99L134.91 0.99Q136.90-0.51 139.97-0.51L139.97-0.51L139.97-0.51Q142.66-0.51 144.70 0.64L144.70 0.64L144.70 0.64Q145.92 1.34 146.50 2.24L146.50 2.24L146.50 2.24Q145.02 3.52 145.02 5.63L145.02 5.63L145.02 5.63Q145.02 8.45 147.58 8.45L147.58 8.45L147.58 8.45Q151.81 8.45 154.24-1.28L154.24-1.28L154.24-1.28Q154.94-4.16 155.58-7.23Z" fill="url(#editing-gradow-gradient)"></path></g></g><style>text {
  font-size: 64px;
  font-family: Arial Black;
  dominant-baseline: central;
  text-anchor: middle;
}</style></svg>